<svg xmlns="http://www.w3.org/2000/svg" width="64pt" height="64pt" viewBox="0 0 64 64" style="isolation:isolate"><defs><clipPath id="a"><path d="M0 0h64v64H0z"/></clipPath></defs><g clip-path="url(#a)"><path d="M32.891 30.886c-15.005 0-28.787 13.035-29.147 27.941-.018.717-.216.747-.443.066C2.593 56.772 2 53.18 2 49.451c0-18.245 14.191-33.203 30.837-34.339a1.406 1.406 0 001.292-1.383V5.548c0-1.104.745-1.503 1.664-.891l25.806 17.204c.918.612.918 1.606 0 2.219L35.793 41.284c-.919.612-1.66.213-1.654-.891l.046-8.627c0-.485-.58-.88-1.294-.88z"/></g></svg>